<svg width="25" height="25" viewBox="0 0 25 25" fill="none" xmlns="http://www.w3.org/2000/svg">
<path d="M16.0656 11.8453H8.06555C7.93422 11.8454 7.80417 11.8195 7.68283 11.7693C7.56149 11.719 7.45123 11.6454 7.35837 11.5525C7.2655 11.4597 7.19185 11.3494 7.1416 11.2281C7.09136 11.1067 7.06552 10.9767 7.06555 10.8453V7.84534C7.06555 6.51925 7.59234 5.24748 8.53002 4.3098C9.4677 3.37212 10.7395 2.84534 12.0656 2.84534C13.3916 2.84534 14.6634 3.37212 15.6011 4.3098C16.5388 5.24748 17.0656 6.51925 17.0656 7.84534V10.8453C17.0656 10.9767 17.0397 11.1067 16.9895 11.2281C16.9393 11.3494 16.8656 11.4597 16.7727 11.5525C16.6799 11.6454 16.5696 11.719 16.4483 11.7693C16.3269 11.8195 16.1969 11.8454 16.0656 11.8453ZM9.06555 9.84534H15.0656V7.84534C15.0656 7.04969 14.7495 6.28663 14.1869 5.72402C13.6243 5.16141 12.8612 4.84534 12.0656 4.84534C11.2699 4.84534 10.5068 5.16141 9.94423 5.72402C9.38162 6.28663 9.06555 7.04969 9.06555 7.84534V9.84534Z" fill="#E7B549"/>
<path d="M17.0656 9.84534H7.06555C5.4087 9.84534 4.06555 11.1885 4.06555 12.8453V19.8453C4.06555 21.5022 5.4087 22.8453 7.06555 22.8453H17.0656C18.7224 22.8453 20.0656 21.5022 20.0656 19.8453V12.8453C20.0656 11.1885 18.7224 9.84534 17.0656 9.84534Z" fill="#E7B549"/>
</svg>
